<?xml version="1.0"?>
<svg xmlns="http://www.w3.org/2000/svg" height="512px" viewBox="0 0 512.00003 512.00003" width="512px"><path d="m512 162.132812c-.046875-42.394531-34.402344-76.753906-76.800781-76.800781h-93.867188c-6.070312.019531-11.667969 3.273438-14.691406 8.535157h-19.441406c-9.425781 0-17.066407 7.640624-17.066407 17.066406v8.53125h-19.4375c-3.023437-5.261719-8.625-8.511719-14.695312-8.53125h-14.386719c-3.367187 0-6.660156 1-9.464843 2.867187l-19.625 13.105469c-3.402344 2.269531-5.875 5.6875-6.972657 9.628906h-43.417969v-15.363281c-.003906-2.871094-1.203124-5.609375-3.308593-7.558594-2.035157-1.894531-4.761719-2.863281-7.535157-2.679687-16.933593 1.039062-34.878906 8.40625-39.316406 25.601562h-26.640625v-110.933594c0-14.140624-11.460937-25.601562-25.597656-25.601562h-34.132813c-14.140624 0-25.601562 11.460938-25.601562 25.601562v460.796876c0 14.140624 11.460938 25.601562 25.601562 25.601562h34.132813c14.136719 0 25.597656-11.460938 25.597656-25.601562v-298.664063h26.640625c4.4375 17.175781 22.359375 24.539063 39.144532 25.597656h.851562c2.550781.003907 5.011719-.953125 6.886719-2.679687 2.09375-1.957032 3.28125-4.695313 3.277343-7.558594v-15.359375h43.332032c1.082031 3.949219 3.554687 7.371094 6.964844 9.640625l19.738281 13.109375c2.792969 1.863281 6.078125 2.855469 9.4375 2.847656h14.394531c6.070312-.015625 11.671875-3.269531 14.695312-8.53125h19.4375v8.53125c0 9.425781 7.640626 17.066407 17.066407 17.066407h19.441406c1.484375 2.554687 3.605469 4.675781 6.160156 6.164062v27.972656c0 9.425782 7.640625 17.066406 17.066407 17.066406h21.929687l12.800781 59.730469h-26.199218c-18.851563 0-34.132813 15.285157-34.132813 34.132813v51.203125c0 9.425781 7.640625 17.066406 17.066406 17.066406h153.601563c9.425781 0 17.066406-7.640625 17.066406-17.066406v-51.203125c0-18.847656-15.28125-34.132813-34.132812-34.132813h-18.664063l-21.222656-102.398437c.316406-.042969.625-.109375.929687-.1875 40.886719-1.980469 73.039063-35.679688 73.089844-76.613282zm-443.734375 324.265626c0 4.714843-3.820313 8.535156-8.53125 8.535156h-34.132813c-4.714843 0-8.535156-3.820313-8.535156-8.535156v-37.9375l51.199219-32.035157zm0-90.058594-51.199219 32.035156v-48.179688l51.199219-32.035156zm0-68.265625-51.199219 32.03125v-48.179688l51.199219-32.03125zm0-68.269531-51.199219 32.035156v-48.179688l51.199219-32.035156zm0-68.265626-51.199219 32.035157v-48.179688l51.199219-32.035156zm0-68.265624-51.199219 32.035156v-48.179688l51.199219-32.035156zm0-68.265626-51.199219 32.03125v-61.4375c0-4.714843 3.820313-8.535156 8.535156-8.535156h34.132813c4.710937 0 8.53125 3.820313 8.53125 8.535156zm76.800781 90.058594v50.261719c-7.800781-1.628906-17.066406-5.742187-17.066406-16.128906 0-4.710938-3.820312-8.53125-8.535156-8.53125h-34.132813v-17.066407h34.132813c4.714844 0 8.535156-3.820312 8.535156-8.535156 0-10.351562 9.214844-14.507812 17.066406-16.121094zm59.734375 25.601563h-42.667969v-17.066407h42.667969zm51.199219 25.597656h-14.394531l-19.738281-13.105469.085937-42.054687 19.652344-13.105469h14.394531zm34.132812-8.53125h-17.066406v-51.199219h17.066406zm34.132813 25.597656h-17.066406v-102.398437h17.066406zm25.601563 51.203125v-25.601562h8.53125c2.46875.019531 4.59375 1.746094 5.121093 4.15625l4.625 21.445312zm145.066406 162.132813h-153.601563v-25.601563h153.601563zm-17.066406-68.269531c9.425781 0 17.066406 7.640624 17.066406 17.066406v8.535156h-153.601563v-8.535156c0-9.425782 7.640625-17.066406 17.066407-17.066406zm-36.089844-17.066407h-39.722656l-21.816407-101.820312c0-.195313-.128906-.382813-.179687-.578125h40.839844c-.023438 1.378906.152343 2.75.519531 4.078125zm-6.578125-119.464843h-93.867188v-119.46875h93.867188c32.992187 0 59.734375 26.746093 59.734375 59.734374 0 32.992188-26.742188 59.734376-59.734375 59.734376zm0 0" fill="#dddddd"/></svg>
